<?xml version="1.0" encoding="UTF-8"?>
<svg id="Layer_2" data-name="Layer 2" xmlns="http://www.w3.org/2000/svg" viewBox="0 0 185.89 49.92">
  <defs>
    <style>
      .cls-1 {
        fill: #7665c8;
      }
    </style>
  </defs>
  <g id="Layer_1-2" data-name="Layer 1">
    <g>
      <path class="cls-1" d="M62.13,47.37L50.03,1.52c-.21-.81-.78-1.32-1.49-1.48-.58-.13-1.26.07-1.8.61L.64,46.42c-.83.82-.83,1.94-.12,2.69.66.7,1.77.83,2.62.13,3.87-3.24,7.98-5.95,12.62-7.96,15.26-6.64,30.8-2.19,43.2,8.07.74.61,1.69.8,2.43.29.67-.47,1.03-1.18.74-2.26ZM30.57,29.88c-.54,0-1.08.01-1.61.03l15.88-15.76,5.28,20.01c-6.36-2.82-12.95-4.27-19.54-4.27Z"/>
      <g>
        <path class="cls-1" d="M86.72,28.92c0-3.09-1.92-5.07-4.95-5.07-4.78,0-8.8,5.65-8.8,12.82,0,4.25,2.33,6.35,5.24,6.35,3.21,0,5.3-1.81,6.41-5.07h7.11c-1.81,7.11-7.23,11.54-14.16,11.54-7.34,0-13.29-4.78-13.29-13.34,0-10.31,7.93-18.76,17.95-18.76,7.81,0,12.06,4.78,11.6,11.54h-7.11Z"/>
        <path class="cls-1" d="M112.7,48.79l1.52-6.12c-2.45,4.14-6.18,6.82-10.78,6.82-6.47,0-9.21-4.9-7.28-12.65l4.72-18.76h8.39l-4.43,17.66c-1.22,4.84.41,7.17,3.9,7.17s5.88-2.21,7.11-7.17l4.43-17.66h8.39l-7.69,30.71h-8.28Z"/>
        <path class="cls-1" d="M136.48,49.31c-5.36,0-8.57-2.97-7.17-8.74l4.08-16.2h-3.26l1.63-6.29h3.21l1.46-6h8.39l-1.46,6h5.94l-1.57,6.29h-5.94l-3.67,14.69c-.64,2.68.17,3.67,2.91,3.67h2.1l-1.46,6.06c-1.52.29-2.91.52-5.19.52Z"/>
        <path class="cls-1" d="M155.59,34.45c-.06.64-.12,1.22-.12,1.86,0,4.95,2.27,7.05,5.48,7.05,3.38,0,5.65-1.81,7.05-4.72h6.99c-2.04,6.7-7.98,10.84-14.39,10.84-7.69,0-13.34-4.78-13.34-13.23,0-10.02,7.98-18.88,17.54-18.88s14.33,7.28,11.19,17.07h-20.4ZM156.81,29.44h12.7c.29-4.66-1.81-6.47-4.84-6.47-3.26,0-6.18,2.56-7.87,6.47Z"/>
        <path class="cls-1" d="M185.89,40.4l-2.04,8.39h-8.51l2.04-8.39h8.51Z"/>
      </g>
    </g>
  </g>
</svg>