<svg viewBox="0 0 512 512" fill="none" xmlns="http://www.w3.org/2000/svg">
  <g clip-path="url(#paint0_angular_214_27_clip_path)">
    <g transform="matrix(0.1675 0.1175 -0.1175 0.1675 256 256)">
      <foreignObject x="-1749.66" y="-1749.66" width="3499.31" height="3499.31">
        <div xmlns="http://www.w3.org/1999/xhtml" style="background:conic-gradient(from 90deg,rgba(0, 137, 97, 1) 0deg,rgba(0, 62, 42, 1) 55.263deg,rgba(0, 195, 139, 1) 318.051deg,rgba(0, 137, 97, 1) 360deg);height:100%;width:100%;opacity:1" />
      </foreignObject>
    </g>
  </g>
  <rect width="512" height="512" rx="125" data-figma-gradient-fill="{&#34;type&#34;:&#34;GRADIENT_ANGULAR&#34;,&#34;stops&#34;:[{&#34;color&#34;:{&#34;r&#34;:0.0,&#34;g&#34;:0.24313725531101227,&#34;b&#34;:0.16470588743686676,&#34;a&#34;:1.0},&#34;position&#34;:0.15350833535194397},{&#34;color&#34;:{&#34;r&#34;:0.0,&#34;g&#34;:0.76470589637756348,&#34;b&#34;:0.54509806632995605,&#34;a&#34;:1.0},&#34;position&#34;:0.88347494602203369}],&#34;stopsVar&#34;:[{&#34;color&#34;:{&#34;r&#34;:0.0,&#34;g&#34;:0.24313725531101227,&#34;b&#34;:0.16470588743686676,&#34;a&#34;:1.0},&#34;position&#34;:0.15350833535194397},{&#34;color&#34;:{&#34;r&#34;:0.0,&#34;g&#34;:0.76470589637756348,&#34;b&#34;:0.54509806632995605,&#34;a&#34;:1.0},&#34;position&#34;:0.88347494602203369}],&#34;transform&#34;:{&#34;m00&#34;:334.99996948242188,&#34;m01&#34;:-235.00003051757812,&#34;m02&#34;:206.00001525878906,&#34;m10&#34;:235.00003051757812,&#34;m11&#34;:334.99996948242188,&#34;m12&#34;:-29.000020980834961},&#34;opacity&#34;:1.0,&#34;blendMode&#34;:&#34;NORMAL&#34;,&#34;visible&#34;:true}" />
  <path d="M361.236 360.906C333.915 360.906 320.254 350.509 320.254 329.715C320.254 319.067 323.514 311.432 330.035 306.811C336.556 302.09 346.503 299.729 359.875 299.729C373.247 299.729 383.11 302.09 389.466 306.811C395.822 311.432 399 319.117 399 329.865C399 340.514 396.028 348.349 390.085 353.372C384.225 358.394 374.608 360.906 361.236 360.906Z" fill="white" />
  <path d="M218.354 174.358L291.405 149.647V361.354H218.354V174.358Z" fill="white" />
  <path d="M113 253.767C113 236.69 114.073 222.124 116.219 210.07C118.448 197.915 122.121 187.869 127.239 179.934C137.309 164.162 154.767 156.277 179.612 156.277H189.27V361.354H179.612C155.097 361.354 137.639 352.112 127.239 333.628C117.746 316.852 113 290.232 113 253.767Z" fill="white" />
  <defs>
    <clipPath id="paint0_angular_214_27_clip_path">
      <rect width="512" height="512" rx="125" />
    </clipPath>
  </defs>
</svg>
